<svg xmlns="http://www.w3.org/2000/svg" width="1024" height="1024" viewBox="0 0 1024 1024">
  <defs>
    <linearGradient id="boxFront" x1="0%" y1="0%" x2="0%" y2="100%">
      <stop offset="0%" stop-color="#ffffff"/>
      <stop offset="100%" stop-color="#e4e9f5"/>
    </linearGradient>
    <linearGradient id="boxTop" x1="0%" y1="0%" x2="100%" y2="100%">
      <stop offset="0%" stop-color="#ffffff"/>
      <stop offset="100%" stop-color="#edf1fa"/>
    </linearGradient>
    <linearGradient id="boxSide" x1="0%" y1="0%" x2="0%" y2="100%">
      <stop offset="0%" stop-color="#d8deeb"/>
      <stop offset="100%" stop-color="#c7d0e3"/>
    </linearGradient>
    <linearGradient id="handle" x1="0%" y1="0%" x2="100%" y2="100%">
      <stop offset="0%" stop-color="#8d97b0"/>
      <stop offset="100%" stop-color="#4c5877"/>
    </linearGradient>
    <radialGradient id="glass" cx="40%" cy="35%" r="70%">
      <stop offset="0%" stop-color="#ffffff" stop-opacity="0.95"/>
      <stop offset="70%" stop-color="#ffffff" stop-opacity="0.86"/>
      <stop offset="100%" stop-color="#eef2fb" stop-opacity="0.78"/>
    </radialGradient>
    <filter id="shadow" x="-20%" y="-20%" width="140%" height="140%">
      <feDropShadow dx="0" dy="24" stdDeviation="22" flood-color="#8e9bb1" flood-opacity="0.22"/>
    </filter>
    <filter id="glassShadow" x="-20%" y="-20%" width="140%" height="140%">
      <feDropShadow dx="0" dy="22" stdDeviation="18" flood-color="#6f7f97" flood-opacity="0.28"/>
    </filter>
  </defs>

  <rect width="1024" height="1024" fill="#ffffff"/>

  <g filter="url(#shadow)">
    <ellipse cx="498" cy="786" rx="360" ry="44" fill="#d9e1ef" fill-opacity="0.72"/>

    <g transform="translate(114 530)">
      <polygon points="0,50 82,0 742,0 660,50" fill="url(#boxTop)"/>
      <rect x="0" y="50" width="660" height="196" fill="url(#boxFront)"/>
      <polygon points="660,50 742,0 742,196 660,246" fill="url(#boxSide)"/>
      <g opacity="0.22" fill="#7985a0">
        <circle cx="244" cy="132" r="28"/>
        <rect x="214" y="154" width="60" height="34" rx="16"/>
      </g>
      <g opacity="0.22" fill="#7985a0">
        <circle cx="614" cy="148" r="22"/>
        <rect x="590" y="166" width="48" height="28" rx="14"/>
      </g>
    </g>

    <g transform="translate(188 368)">
      <polygon points="0,42 70,0 470,0 400,42" fill="url(#boxTop)"/>
      <rect x="0" y="42" width="400" height="158" fill="url(#boxFront)"/>
      <polygon points="400,42 470,0 470,158 400,200" fill="url(#boxSide)"/>
      <g opacity="0.22" fill="#7985a0">
        <circle cx="212" cy="94" r="24"/>
        <rect x="186" y="114" width="52" height="30" rx="15"/>
      </g>
    </g>

    <g transform="translate(252 246)">
      <polygon points="0,34 54,0 356,0 302,34" fill="url(#boxTop)"/>
      <rect x="0" y="34" width="302" height="116" fill="url(#boxFront)"/>
      <polygon points="302,34 356,0 356,116 302,150" fill="url(#boxSide)"/>
      <g opacity="0.22" fill="#7985a0">
        <circle cx="170" cy="72" r="20"/>
        <rect x="148" y="88" width="44" height="26" rx="13"/>
      </g>
    </g>
  </g>

  <g filter="url(#glassShadow)">
    <circle cx="736" cy="454" r="162" fill="url(#glass)"/>
    <circle cx="736" cy="454" r="162" fill="none" stroke="#c1c7d3" stroke-width="18"/>
    <circle cx="736" cy="454" r="144" fill="none" stroke="#fefefe" stroke-width="10" opacity="0.8"/>
    <rect x="835" y="566" width="176" height="58" rx="24" transform="rotate(44 835 566)" fill="url(#handle)"/>
    <rect x="852" y="587" width="146" height="18" rx="9" transform="rotate(44 852 587)" fill="#ffffff" fill-opacity="0.18"/>

    <g transform="translate(648 370) scale(0.94)">
      <path fill="#7380ad" d="M16 0h112c8 0 14 7 12 15l-18 74c-5 22-25 37-47 37H16c-9 0-16-7-16-16V16C0 7 7 0 16 0z"/>
      <path fill="#7380ad" d="M131 24h118c9 0 16 7 16 16v146c0 9-7 16-16 16H16c-9 0-16-7-16-16v-42c0-9 7-16 16-16h42c29 0 55-19 63-47l18-57c8-24 31-40 56-40z"/>
    </g>
  </g>
</svg>
